<?xml version="1.0" standalone="no"?>
<!DOCTYPE svg PUBLIC "-//W3C//DTD SVG 20010904//EN"
 "http://www.w3.org/TR/2001/REC-SVG-20010904/DTD/svg10.dtd">
<svg version="1.0" xmlns="http://www.w3.org/2000/svg"
 width="269.000000pt" height="269.000000pt" viewBox="0 0 269.000000 269.000000"
 preserveAspectRatio="xMidYMid meet">
<metadata>
Created by potrace 1.14, written by Peter Selinger 2001-2017
</metadata>
<g transform="translate(0.000000,269.000000) scale(0.100000,-0.100000)"
fill="#000000" stroke="none">
<path d="M1645 2614 c-27 -14 -51 -30 -53 -35 -2 -5 -8 -9 -14 -9 -13 0 -77
-69 -94 -101 -17 -34 -34 -108 -25 -113 11 -7 4 -141 -9 -167 -20 -37 -44 -56
-128 -101 -98 -53 -137 -81 -188 -135 -41 -44 -90 -130 -96 -168 -2 -11 -7
-23 -12 -26 -4 -4 -9 -27 -10 -53 0 -25 -5 -46 -11 -46 -6 0 -10 15 -9 32 1
18 0 36 -2 40 -8 12 -112 -29 -221 -88 -58 -30 -110 -60 -117 -65 -6 -5 -31
-23 -56 -39 -25 -16 -60 -43 -78 -59 l-33 -31 2 -125 c1 -69 5 -125 9 -125 13
0 17 -69 5 -74 -11 -4 -13 -214 -3 -276 7 -45 50 -165 69 -192 11 -14 19 -29
19 -33 0 -8 55 -89 85 -124 64 -78 168 -182 230 -233 51 -42 235 -168 235
-161 0 3 8 -1 17 -9 10 -8 38 -26 63 -39 25 -13 47 -27 50 -30 17 -21 55 -19
107 6 297 146 579 400 689 620 72 146 75 162 79 495 l3 295 -50 48 c-28 26
-56 47 -63 47 -7 0 -15 4 -17 9 -8 23 -358 203 -358 185 0 -2 -14 3 -31 11
-25 13 -36 14 -67 4 -20 -6 -44 -17 -52 -23 -13 -10 -13 -9 -1 7 7 9 19 17 26
17 8 0 15 5 17 11 2 5 11 11 20 13 10 1 21 5 24 9 4 4 16 7 26 7 10 0 18 5 18
11 0 5 4 8 9 5 5 -4 11 -3 13 2 1 4 34 27 71 51 139 87 211 167 223 250 8 55
10 112 4 116 -8 5 -7 21 4 82 4 24 8 46 7 50 0 15 44 55 82 74 20 11 37 17 37
14 0 -7 81 34 96 50 7 6 18 32 25 56 7 24 20 49 27 55 31 23 7 31 -47 16 -40
-12 -67 -28 -108 -69 -30 -29 -57 -53 -60 -53 -3 0 -22 -13 -43 -30 -21 -16
-42 -30 -48 -30 -12 0 -65 -65 -77 -95 -9 -23 -8 -19 -25 -100 -18 -88 -60
-142 -140 -185 -30 -15 -114 -43 -130 -42 -3 0 -11 -4 -17 -10 -7 -6 -13 -8
-13 -4 0 4 -13 0 -30 -9 -16 -9 -30 -12 -30 -8 0 5 -5 1 -10 -7 -5 -8 -10 -10
-10 -4 0 6 8 22 19 35 10 13 24 47 31 76 12 46 18 54 58 75 70 36 95 125 65
234 -13 50 -8 144 7 144 5 0 11 9 15 19 3 11 19 34 35 50 34 37 30 38 -35 5z
m-352 -750 c-62 -48 -140 -188 -149 -267 -4 -34 -13 -49 -24 -42 -9 6 14 92
41 152 10 24 18 44 17 45 -1 2 7 14 17 27 55 67 89 101 101 101 8 0 14 5 14
12 0 6 3 8 7 4 4 -4 -7 -18 -24 -32z m172 -164 c-16 -11 -24 -20 -17 -20 7 0
11 -4 8 -8 -2 -4 3 -8 13 -9 29 -2 156 -45 162 -55 3 -6 10 -9 15 -9 5 1 27
-6 49 -16 22 -9 42 -17 45 -18 22 -6 60 -30 60 -37 0 -5 4 -7 8 -4 7 4 104
-58 183 -117 l24 -17 -1 -213 c-2 -357 -2 -352 -66 -485 -18 -37 -31 -70 -30
-74 1 -5 -3 -8 -9 -8 -11 0 -9 22 5 80 21 81 21 199 1 315 -17 99 -115 231
-200 268 -22 10 -48 23 -58 28 -11 6 -21 8 -24 5 -3 -2 -17 0 -32 6 -14 5 -45
11 -68 13 -23 2 -47 6 -53 10 -5 3 -10 1 -10 -6 0 -7 -3 -10 -6 -6 -9 9 6 48
17 42 5 -4 9 -1 9 4 0 6 7 11 16 11 8 0 13 4 9 9 -3 5 4 12 14 16 11 3 23 15
26 26 4 10 11 19 16 19 5 0 9 6 9 14 0 8 16 32 35 53 22 24 30 40 23 44 -11 7
-103 3 -143 -6 -65 -14 -110 -27 -126 -35 -13 -7 -22 -6 -33 6 -18 17 -21 34
-7 34 5 0 12 13 16 28 7 33 83 116 107 117 3 0 10 3 14 8 4 4 12 7 18 7 6 0
-2 -9 -19 -20z m-448 -56 c-3 -3 -12 -4 -19 -1 -8 3 -5 6 6 6 11 1 17 -2 13
-5z m-6 -31 c4 -63 -17 -99 -53 -89 -10 2 -18 0 -18 -5 0 -5 -8 -9 -17 -9 -15
0 -16 -2 -3 -9 8 -6 18 -7 22 -5 4 3 8 0 8 -6 0 -6 4 -9 9 -6 17 11 5 -23 -16
-46 -21 -23 -29 -49 -39 -123 -4 -22 -17 -82 -30 -134 -14 -51 -22 -102 -18
-113 4 -13 2 -18 -4 -14 -6 3 -17 -3 -25 -14 -7 -11 -17 -17 -20 -13 -4 3 -7
0 -8 -8 0 -8 -3 -26 -5 -41 -3 -16 0 -28 5 -28 5 0 8 -8 6 -18 -4 -23 14 -47
43 -56 18 -6 29 -1 49 18 14 15 37 29 50 32 12 4 23 10 23 15 0 5 5 9 11 9 8
0 9 -4 0 -13 -6 -8 -9 -16 -6 -18 2 -3 -15 -13 -39 -23 -52 -22 -65 -49 -29
-65 13 -6 33 -11 43 -11 11 0 20 -7 20 -15 0 -8 5 -15 11 -15 5 0 8 -4 5 -9
-3 -5 1 -14 9 -21 22 -19 50 15 75 92 23 73 102 211 141 249 27 26 30 27 90
33 43 4 42 -9 -1 -17 -37 -7 -80 -29 -75 -38 3 -4 1 -11 -5 -14 -20 -13 -70
-126 -74 -167 -6 -60 -25 -108 -58 -143 -15 -16 -28 -33 -28 -36 0 -3 -28 -20
-62 -37 -191 -95 -322 -6 -441 298 -5 14 -13 33 -18 42 -5 10 -9 27 -9 38 0
14 -4 19 -12 14 -7 -5 -9 0 -6 14 3 12 1 23 -6 26 -6 2 -4 5 5 5 9 1 26 -22
44 -58 15 -33 37 -71 49 -86 l21 -26 -1 221 0 221 25 20 c14 10 39 29 55 42
52 40 212 128 220 120 3 -4 6 -1 6 6 0 9 8 11 21 8 12 -3 19 -3 16 0 -6 5 24
41 36 42 4 1 7 -7 8 -16z m524 -163 c1 -8 -11 -23 -25 -32 -14 -10 -20 -18
-15 -18 19 0 -50 -31 -76 -35 -46 -6 -26 38 36 79 41 28 80 31 80 6z m-371
-151 c38 5 12 -21 -31 -32 -19 -4 -23 -1 -23 18 0 24 29 39 41 22 3 -5 9 -8
13 -8z m-214 -223 c0 -3 -4 -8 -10 -11 -5 -3 -10 -1 -10 4 0 6 5 11 10 11 6 0
10 -2 10 -4z m-67 -102 c-3 -8 -8 -12 -11 -10 -3 3 -11 1 -18 -5 -9 -8 -11 -5
-7 10 3 12 9 18 14 15 5 -3 9 0 9 6 0 6 4 9 10 5 5 -3 7 -12 3 -21z m817 -14
c5 0 15 -18 21 -40 7 -22 16 -40 21 -40 5 0 7 -4 4 -8 -3 -5 1 -33 7 -63 13
-55 14 -121 4 -174 -15 -73 -20 -91 -25 -100 -4 -5 -7 -15 -8 -22 -7 -47 -146
-222 -186 -236 -21 -7 -24 8 -5 20 37 24 106 192 99 241 l-4 23 -19 -22 c-10
-12 -19 -25 -19 -30 0 -4 -34 -41 -75 -83 -106 -107 -177 -142 -330 -162 -22
-2 -46 -7 -52 -9 -10 -3 -10 0 -1 15 7 10 15 17 19 15 13 -8 128 56 163 91 49
49 87 132 92 199 3 36 0 54 -6 50 -5 -3 -10 -12 -10 -18 -1 -20 -106 -117
-154 -143 -25 -13 -73 -31 -108 -39 -77 -18 -81 -18 -72 -2 5 9 4 9 -5 1 -28
-25 -186 29 -251 86 -14 12 -19 19 -13 15 7 -3 30 -7 51 -9 22 -2 44 -6 49 -9
14 -9 159 -10 198 -2 145 29 288 204 309 379 6 49 24 70 32 38 4 -12 10 -22
14 -22 11 0 57 -115 52 -132 -1 -5 1 -8 6 -8 4 0 8 -17 9 -38 0 -20 4 -48 8
-62 3 -14 8 -34 9 -45 2 -11 4 -21 5 -22 7 -12 100 118 108 152 1 5 10 35 18
65 9 30 17 80 19 110 4 67 7 80 13 58 2 -10 8 -18 13 -18z"/>
</g>
</svg>
